<svg xmlns="http://www.w3.org/2000/svg" viewBox="0 0 123.65333 216.96001" height="216.96" width="123.653" xml:space="preserve" version="1.1">
  <g fill-opacity="1" fill-rule="nonzero">
    <path d="M61.823 216.96c4.555 0 8.79-1.12 12.7-3.36 3.91-2.238 7.016-5.288 9.316-9.147 2.298-3.86 3.447-8.113 3.447-12.762 0-4.52-1.127-8.72-3.384-12.603-2.257-3.88-5.33-6.962-9.218-9.243-3.89-2.28-8.177-3.424-12.862-3.424-4.555 0-8.79 1.12-12.7 3.36-3.91 2.24-7.015 5.288-9.314 9.147-2.3 3.86-3.45 8.114-3.45 12.764 0 4.522 1.127 8.723 3.385 12.603 2.257 3.882 5.328 6.962 9.218 9.243 3.89 2.283 8.176 3.424 12.86 3.424m0-8.444c-3.094 0-5.94-.76-8.54-2.272-2.602-1.513-4.654-3.56-6.157-6.14-1.505-2.58-2.257-5.385-2.257-8.413 0-3.07.762-5.895 2.29-8.475 1.522-2.58 3.587-4.62 6.186-6.11 2.6-1.493 5.426-2.24 8.477-2.24 3.096 0 5.943.758 8.542 2.27 2.6 1.515 4.652 3.562 6.156 6.144 1.506 2.578 2.26 5.383 2.26 8.41 0 3.07-.766 5.895-2.29 8.477-1.526 2.58-3.59 4.617-6.188 6.11-2.6 1.492-5.427 2.24-8.48 2.24" fill="#2e2a2b"/>
    <path d="M0 196.63h26.476v-8.317H0zM97.172 196.63h26.474v-8.317H97.172z" fill="#c6a866"/>
    <path d="M0 51.18h20.5c2.62 0 5.04-.64 7.253-1.92 2.213-1.28 3.974-3.025 5.286-5.244 1.308-2.217 1.965-4.627 1.965-7.23 0-2.387-.57-4.626-1.71-6.715-1.137-2.09-2.696-3.817-4.672-5.182 1.89-2.645 2.836-5.5 2.836-8.573 0-2.6-.657-5.01-1.968-7.228-1.31-2.22-3.072-3.967-5.285-5.246-2.215-1.28-4.632-1.92-7.252-1.92H0zm8.38-28.787V10.24h8.575c1.717 0 3.168.596 4.35 1.79 1.182 1.194 1.774 2.62 1.774 4.285 0 1.706-.603 3.146-1.807 4.318-1.203 1.175-2.642 1.76-4.318 1.76zm0 20.472V30.71H20.5c1.72 0 3.17.598 4.35 1.79 1.182 1.196 1.775 2.624 1.775 4.287 0 1.706-.604 3.146-1.806 4.318-1.205 1.174-2.643 1.76-4.32 1.76H8.38M40.692 51.18h8.38V30.71h6.19L66.67 51.18h9.67L64.03 30.2c3.178-.855 5.756-2.56 7.734-5.12 1.976-2.56 2.965-5.565 2.965-9.02 0-2.43-.644-4.735-1.933-6.91-1.29-2.175-3.052-3.922-5.287-5.245-2.235-1.32-4.664-1.985-7.285-1.985H40.692zm8.38-28.467V10.11h9.864c4.942 0 7.413 2.09 7.413 6.27 0 4.223-2.472 6.333-7.414 6.333h-9.864M35.016 55.948L22.564 86.905 10.11 55.948H.344l22.22 50.406 22.22-50.406h-9.767M100.234 106.488c2.795 0 5.373-.566 7.737-1.695 2.363-1.13 4.257-2.75 5.673-4.862 1.42-2.11 2.128-4.575 2.128-7.388 0-2.688-.623-4.947-1.87-6.78-1.244-1.834-2.632-3.253-4.157-4.255-1.524-1.002-3.663-2.208-6.412-3.615-2.708-1.408-4.78-2.74-6.22-4-1.44-1.256-2.162-2.76-2.162-4.508 0-1.58.59-2.868 1.773-3.87 1.184-1.002 2.676-1.505 4.482-1.505 1.418 0 2.676.35 3.772 1.055 1.096.704 1.88 1.718 2.35 3.04l7.288-3.328c-1.16-2.688-2.913-4.83-5.255-6.43-2.343-1.6-5.04-2.398-8.09-2.398-2.665 0-5.06.597-7.187 1.79-2.13 1.195-3.804 2.847-5.028 4.96-1.227 2.108-1.838 4.488-1.838 7.13 0 2.56.567 4.767 1.708 6.622 1.138 1.856 2.513 3.38 4.125 4.575 1.612 1.194 3.557 2.366 5.836 3.518 1.716.854 3.135 1.63 4.253 2.335 1.117.703 2.106 1.578 2.966 2.623.86 1.045 1.29 2.208 1.29 3.487 0 1.705-.69 3.037-2.064 3.998-1.375.96-3.052 1.44-5.03 1.44-2.06 0-3.855-.544-5.38-1.633-1.527-1.087-2.612-2.568-3.257-4.446l-7.09 3.135c1.075 3.325 3.008 5.992 5.802 7.995 2.795 2.007 6.08 3.008 9.862 3.008M15.665 161.652c2.794 0 5.372-.565 7.736-1.694 2.364-1.13 4.256-2.753 5.673-4.863 1.42-2.11 2.128-4.574 2.128-7.39 0-2.685-.622-4.947-1.868-6.78-1.247-1.833-2.634-3.25-4.16-4.253-1.524-1.002-3.663-2.207-6.412-3.615-2.708-1.408-4.78-2.74-6.22-4-1.44-1.256-2.16-2.76-2.16-4.507 0-1.58.59-2.87 1.772-3.872 1.18-1 2.675-1.503 4.48-1.503 1.42 0 2.676.35 3.772 1.055 1.096.703 1.878 1.718 2.352 3.038l7.285-3.325c-1.16-2.688-2.91-4.83-5.254-6.43-2.342-1.6-5.038-2.398-8.09-2.398-2.664 0-5.06.596-7.187 1.79-2.13 1.194-3.805 2.846-5.03 4.958-1.224 2.11-1.836 4.49-1.836 7.133 0 2.56.57 4.766 1.708 6.62 1.138 1.856 2.513 3.383 4.125 4.576 1.612 1.195 3.556 2.366 5.835 3.517 1.717.854 3.136 1.63 4.254 2.334 1.117.706 2.106 1.58 2.966 2.624.86 1.044 1.29 2.207 1.29 3.485 0 1.707-.69 3.04-2.064 4-1.375.96-3.052 1.44-5.03 1.44-2.06 0-3.856-.543-5.382-1.63-1.525-1.09-2.61-2.57-3.254-4.448L0 150.648c1.075 3.327 3.008 5.993 5.803 7.997 2.793 2.006 6.08 3.007 9.862 3.007M100.053 142.845l-23.595-32.37v51.178h8.38v-26.55l15.215 20.92 15.278-20.92v26.55h8.317v-51.18l-23.594 32.372M101.085 0L78.52 51.176h9.386l13.167-32.412v-.025l.005.013.005-.013v.025l13.167 32.412h9.397L101.085 0M68.125 111.25h-9.983l-22.35 50.402h9.985l22.348-50.403" fill="#2e2a2b"/>
    <path d="M96.115 51.177h9.94V41.31h-9.94z" fill="#c6a866"/>
    <path d="M77.828 55.95h-9.982l-22.35 50.403h9.984L77.828 55.95" fill="#2e2a2b"/>
  </g>
</svg>
